<?xml version="1.0" encoding="UTF-8"?>
<svg width="800" height="120" viewBox="0 0 800 120" xmlns="http://www.w3.org/2000/svg">
    <defs>
        <linearGradient id="letterGradient" x1="0%" y1="0%" x2="0%" y2="100%">
            <stop offset="0%" style="stop-color:#4a69bd;stop-opacity:1" />
            <stop offset="100%" style="stop-color:#3742fa;stop-opacity:1" />
        </linearGradient>
        <filter id="innerShadow" x="-20%" y="-20%" width="140%" height="140%">
            <feGaussianBlur in="SourceAlpha" stdDeviation="2"/>
            <feOffset dx="0" dy="2"/>
            <feComposite in2="SourceAlpha" operator="arithmetic" k2="-1" k3="1"/>
            <feColorMatrix type="matrix" values="0 0 0 0 0   0 0 0 0 0   0 0 0 0 0  0 0 0 0.5 0"/>
        </filter>
    </defs>

    <!-- Letter Tiles -->
    <g id="letters" transform="translate(40,10)">
        <!-- C -->
        <g transform="translate(0,0)">
            <rect x="0" y="0" width="70" height="100" rx="5" fill="url(#letterGradient)" filter="url(#innerShadow)"/>
            <text x="35" y="70" font-family="Arial Black" font-size="60" fill="white" text-anchor="middle">C</text>
        </g>
        <!-- O -->
        <g transform="translate(80,0)">
            <rect x="0" y="0" width="70" height="100" rx="5" fill="url(#letterGradient)" filter="url(#innerShadow)"/>
            <text x="35" y="70" font-family="Arial Black" font-size="60" fill="white" text-anchor="middle">O</text>
        </g>
        <!-- U -->
        <g transform="translate(160,0)">
            <rect x="0" y="0" width="70" height="100" rx="5" fill="url(#letterGradient)" filter="url(#innerShadow)"/>
            <text x="35" y="70" font-family="Arial Black" font-size="60" fill="white" text-anchor="middle">U</text>
        </g>
        <!-- N -->
        <g transform="translate(240,0)">
            <rect x="0" y="0" width="70" height="100" rx="5" fill="url(#letterGradient)" filter="url(#innerShadow)"/>
            <text x="35" y="70" font-family="Arial Black" font-size="60" fill="white" text-anchor="middle">N</text>
        </g>
        <!-- T -->
        <g transform="translate(320,0)">
            <rect x="0" y="0" width="70" height="100" rx="5" fill="url(#letterGradient)" filter="url(#innerShadow)"/>
            <text x="35" y="70" font-family="Arial Black" font-size="60" fill="white" text-anchor="middle">T</text>
        </g>
        <!-- D -->
        <g transform="translate(400,0)">
            <rect x="0" y="0" width="70" height="100" rx="5" fill="url(#letterGradient)" filter="url(#innerShadow)"/>
            <text x="35" y="70" font-family="Arial Black" font-size="60" fill="white" text-anchor="middle">D</text>
        </g>
        <!-- O -->
        <g transform="translate(480,0)">
            <rect x="0" y="0" width="70" height="100" rx="5" fill="url(#letterGradient)" filter="url(#innerShadow)"/>
            <text x="35" y="70" font-family="Arial Black" font-size="60" fill="white" text-anchor="middle">O</text>
        </g>
        <!-- W -->
        <g transform="translate(560,0)">
            <rect x="0" y="0" width="70" height="100" rx="5" fill="url(#letterGradient)" filter="url(#innerShadow)"/>
            <text x="35" y="70" font-family="Arial Black" font-size="60" fill="white" text-anchor="middle">W</text>
        </g>
        <!-- N -->
        <g transform="translate(640,0)">
            <rect x="0" y="0" width="70" height="100" rx="5" fill="url(#letterGradient)" filter="url(#innerShadow)"/>
            <text x="35" y="70" font-family="Arial Black" font-size="60" fill="white" text-anchor="middle">N</text>
        </g>
    </g>
</svg> 